<mxfile host="Electron" agent="Mozilla/5.0 (Windows NT 10.0; Win64; x64) AppleWebKit/537.36 (KHTML, like Gecko) draw.io/26.2.15 Chrome/134.0.6998.205 Electron/35.2.1 Safari/537.36" version="26.2.15">
  <diagram name="Page-1" id="geU8YUqA83CQBgDH3o9E">
    <mxGraphModel dx="1426" dy="841" grid="1" gridSize="10" guides="1" tooltips="1" connect="1" arrows="1" fold="1" page="1" pageScale="1" pageWidth="850" pageHeight="1100" math="0" shadow="0">
      <root>
        <mxCell id="0" />
        <mxCell id="1" parent="0" />
        <mxCell id="_qybNRKBtqUaVHmgm0ZD-5" value="CLK100MHZ" style="text;html=1;align=center;verticalAlign=middle;whiteSpace=wrap;rounded=0;" parent="1" vertex="1">
          <mxGeometry x="20" y="130" width="80" height="30" as="geometry" />
        </mxCell>
        <mxCell id="_qybNRKBtqUaVHmgm0ZD-46" style="edgeStyle=orthogonalEdgeStyle;rounded=0;orthogonalLoop=1;jettySize=auto;html=1;entryX=0;entryY=0.25;entryDx=0;entryDy=0;" parent="1" source="_qybNRKBtqUaVHmgm0ZD-6" target="_qybNRKBtqUaVHmgm0ZD-1" edge="1">
          <mxGeometry relative="1" as="geometry">
            <Array as="points">
              <mxPoint x="130" y="200" />
              <mxPoint x="130" y="135" />
            </Array>
          </mxGeometry>
        </mxCell>
        <mxCell id="_qybNRKBtqUaVHmgm0ZD-6" value="BTN&lt;span style=&quot;background-color: transparent; color: light-dark(rgb(0, 0, 0), rgb(255, 255, 255));&quot;&gt;U&lt;/span&gt;" style="text;html=1;align=center;verticalAlign=middle;whiteSpace=wrap;rounded=0;" parent="1" vertex="1">
          <mxGeometry x="20" y="185" width="50" height="30" as="geometry" />
        </mxCell>
        <mxCell id="_qybNRKBtqUaVHmgm0ZD-12" style="edgeStyle=orthogonalEdgeStyle;rounded=0;orthogonalLoop=1;jettySize=auto;html=1;" parent="1" source="_qybNRKBtqUaVHmgm0ZD-7" edge="1">
          <mxGeometry relative="1" as="geometry">
            <mxPoint x="110" y="255" as="targetPoint" />
          </mxGeometry>
        </mxCell>
        <mxCell id="_qybNRKBtqUaVHmgm0ZD-7" value="BTND" style="text;html=1;align=center;verticalAlign=middle;whiteSpace=wrap;rounded=0;" parent="1" vertex="1">
          <mxGeometry x="20" y="240" width="50" height="30" as="geometry" />
        </mxCell>
        <mxCell id="_qybNRKBtqUaVHmgm0ZD-47" style="edgeStyle=orthogonalEdgeStyle;rounded=0;orthogonalLoop=1;jettySize=auto;html=1;entryX=0;entryY=0.5;entryDx=0;entryDy=0;" parent="1" source="_qybNRKBtqUaVHmgm0ZD-9" target="_qybNRKBtqUaVHmgm0ZD-1" edge="1">
          <mxGeometry relative="1" as="geometry" />
        </mxCell>
        <mxCell id="_qybNRKBtqUaVHmgm0ZD-9" value="BTNL" style="text;html=1;align=center;verticalAlign=middle;whiteSpace=wrap;rounded=0;" parent="1" vertex="1">
          <mxGeometry x="20" y="300" width="50" height="30" as="geometry" />
        </mxCell>
        <mxCell id="_qybNRKBtqUaVHmgm0ZD-48" style="edgeStyle=orthogonalEdgeStyle;rounded=0;orthogonalLoop=1;jettySize=auto;html=1;entryX=0;entryY=0.75;entryDx=0;entryDy=0;" parent="1" source="_qybNRKBtqUaVHmgm0ZD-10" target="_qybNRKBtqUaVHmgm0ZD-1" edge="1">
          <mxGeometry relative="1" as="geometry">
            <Array as="points">
              <mxPoint x="170" y="370" />
              <mxPoint x="170" y="205" />
            </Array>
          </mxGeometry>
        </mxCell>
        <mxCell id="_qybNRKBtqUaVHmgm0ZD-10" value="BTNR" style="text;html=1;align=center;verticalAlign=middle;whiteSpace=wrap;rounded=0;" parent="1" vertex="1">
          <mxGeometry x="20" y="350" width="50" height="30" as="geometry" />
        </mxCell>
        <mxCell id="_qybNRKBtqUaVHmgm0ZD-31" style="edgeStyle=orthogonalEdgeStyle;rounded=0;orthogonalLoop=1;jettySize=auto;html=1;entryX=1;entryY=0.5;entryDx=0;entryDy=0;" parent="1" source="_qybNRKBtqUaVHmgm0ZD-35" target="_qybNRKBtqUaVHmgm0ZD-20" edge="1">
          <mxGeometry relative="1" as="geometry">
            <Array as="points">
              <mxPoint x="530" y="565" />
            </Array>
          </mxGeometry>
        </mxCell>
        <mxCell id="_qybNRKBtqUaVHmgm0ZD-11" value="SW[14:0]" style="text;html=1;align=center;verticalAlign=middle;whiteSpace=wrap;rounded=0;" parent="1" vertex="1">
          <mxGeometry x="20" y="410" width="60" height="30" as="geometry" />
        </mxCell>
        <mxCell id="_qybNRKBtqUaVHmgm0ZD-13" value="" style="group" parent="1" vertex="1" connectable="0">
          <mxGeometry x="240" y="290" width="120" height="180" as="geometry" />
        </mxCell>
        <mxCell id="_qybNRKBtqUaVHmgm0ZD-2" value="higher_or_lower" style="rounded=0;whiteSpace=wrap;html=1;" parent="_qybNRKBtqUaVHmgm0ZD-13" vertex="1">
          <mxGeometry y="30" width="120" height="150" as="geometry" />
        </mxCell>
        <mxCell id="_qybNRKBtqUaVHmgm0ZD-4" value="game_hl" style="text;html=1;align=center;verticalAlign=middle;resizable=0;points=[];autosize=1;strokeColor=none;fillColor=none;" parent="_qybNRKBtqUaVHmgm0ZD-13" vertex="1">
          <mxGeometry x="25" width="70" height="30" as="geometry" />
        </mxCell>
        <mxCell id="_qybNRKBtqUaVHmgm0ZD-14" value="" style="group" parent="1" vertex="1" connectable="0">
          <mxGeometry x="230" y="70" width="150" height="170" as="geometry" />
        </mxCell>
        <mxCell id="_qybNRKBtqUaVHmgm0ZD-1" value="rock_paper_scissors" style="rounded=0;whiteSpace=wrap;html=1;" parent="_qybNRKBtqUaVHmgm0ZD-14" vertex="1">
          <mxGeometry y="30" width="150" height="140" as="geometry" />
        </mxCell>
        <mxCell id="_qybNRKBtqUaVHmgm0ZD-3" value="game_rpc" style="text;html=1;align=center;verticalAlign=middle;resizable=0;points=[];autosize=1;strokeColor=none;fillColor=none;" parent="_qybNRKBtqUaVHmgm0ZD-14" vertex="1">
          <mxGeometry x="35" width="80" height="30" as="geometry" />
        </mxCell>
        <mxCell id="_qybNRKBtqUaVHmgm0ZD-42" style="edgeStyle=orthogonalEdgeStyle;rounded=0;orthogonalLoop=1;jettySize=auto;html=1;exitX=0.25;exitY=0;exitDx=0;exitDy=0;" parent="1" source="_qybNRKBtqUaVHmgm0ZD-20" target="_qybNRKBtqUaVHmgm0ZD-39" edge="1">
          <mxGeometry relative="1" as="geometry">
            <Array as="points">
              <mxPoint x="560" y="430" />
              <mxPoint x="630" y="430" />
              <mxPoint x="630" y="370" />
            </Array>
          </mxGeometry>
        </mxCell>
        <mxCell id="_qybNRKBtqUaVHmgm0ZD-43" style="edgeStyle=orthogonalEdgeStyle;rounded=0;orthogonalLoop=1;jettySize=auto;html=1;" parent="1" source="_qybNRKBtqUaVHmgm0ZD-20" target="_qybNRKBtqUaVHmgm0ZD-40" edge="1">
          <mxGeometry relative="1" as="geometry">
            <Array as="points">
              <mxPoint x="690" y="470" />
              <mxPoint x="690" y="435" />
            </Array>
          </mxGeometry>
        </mxCell>
        <mxCell id="_qybNRKBtqUaVHmgm0ZD-44" style="edgeStyle=orthogonalEdgeStyle;rounded=0;orthogonalLoop=1;jettySize=auto;html=1;exitX=0.71;exitY=0.03;exitDx=0;exitDy=0;exitPerimeter=0;" parent="1" source="_qybNRKBtqUaVHmgm0ZD-20" target="_qybNRKBtqUaVHmgm0ZD-41" edge="1">
          <mxGeometry relative="1" as="geometry">
            <Array as="points">
              <mxPoint x="610" y="499" />
              <mxPoint x="610" y="499" />
            </Array>
          </mxGeometry>
        </mxCell>
        <mxCell id="_qybNRKBtqUaVHmgm0ZD-20" value="MUX" style="shape=trapezoid;perimeter=trapezoidPerimeter;whiteSpace=wrap;html=1;fixedSize=1;rotation=90;size=20;" parent="1" vertex="1">
          <mxGeometry x="460" y="440" width="140" height="60" as="geometry" />
        </mxCell>
        <mxCell id="_qybNRKBtqUaVHmgm0ZD-24" style="edgeStyle=orthogonalEdgeStyle;rounded=0;orthogonalLoop=1;jettySize=auto;html=1;" parent="1" source="_qybNRKBtqUaVHmgm0ZD-2" edge="1">
          <mxGeometry relative="1" as="geometry">
            <mxPoint x="500" y="500" as="targetPoint" />
            <Array as="points">
              <mxPoint x="390" y="450" />
              <mxPoint x="390" y="500" />
            </Array>
          </mxGeometry>
        </mxCell>
        <mxCell id="_qybNRKBtqUaVHmgm0ZD-25" style="edgeStyle=orthogonalEdgeStyle;rounded=0;orthogonalLoop=1;jettySize=auto;html=1;" parent="1" source="_qybNRKBtqUaVHmgm0ZD-2" edge="1">
          <mxGeometry relative="1" as="geometry">
            <mxPoint x="500" y="500" as="targetPoint" />
            <Array as="points">
              <mxPoint x="410" y="395" />
              <mxPoint x="410" y="500" />
            </Array>
          </mxGeometry>
        </mxCell>
        <mxCell id="_qybNRKBtqUaVHmgm0ZD-26" style="edgeStyle=orthogonalEdgeStyle;rounded=0;orthogonalLoop=1;jettySize=auto;html=1;entryX=0.705;entryY=0.97;entryDx=0;entryDy=0;entryPerimeter=0;" parent="1" source="_qybNRKBtqUaVHmgm0ZD-2" target="_qybNRKBtqUaVHmgm0ZD-20" edge="1">
          <mxGeometry relative="1" as="geometry">
            <Array as="points">
              <mxPoint x="400" y="430" />
              <mxPoint x="400" y="500" />
              <mxPoint x="500" y="500" />
              <mxPoint x="500" y="499" />
            </Array>
          </mxGeometry>
        </mxCell>
        <mxCell id="_qybNRKBtqUaVHmgm0ZD-27" style="edgeStyle=orthogonalEdgeStyle;rounded=0;orthogonalLoop=1;jettySize=auto;html=1;entryX=0.25;entryY=1;entryDx=0;entryDy=0;" parent="1" source="_qybNRKBtqUaVHmgm0ZD-1" target="_qybNRKBtqUaVHmgm0ZD-20" edge="1">
          <mxGeometry relative="1" as="geometry" />
        </mxCell>
        <mxCell id="_qybNRKBtqUaVHmgm0ZD-28" style="edgeStyle=orthogonalEdgeStyle;rounded=0;orthogonalLoop=1;jettySize=auto;html=1;entryX=0.25;entryY=1;entryDx=0;entryDy=0;" parent="1" source="_qybNRKBtqUaVHmgm0ZD-1" target="_qybNRKBtqUaVHmgm0ZD-20" edge="1">
          <mxGeometry relative="1" as="geometry">
            <Array as="points">
              <mxPoint x="440" y="210" />
              <mxPoint x="440" y="435" />
            </Array>
          </mxGeometry>
        </mxCell>
        <mxCell id="_qybNRKBtqUaVHmgm0ZD-29" style="edgeStyle=orthogonalEdgeStyle;rounded=0;orthogonalLoop=1;jettySize=auto;html=1;entryX=0.25;entryY=1;entryDx=0;entryDy=0;" parent="1" source="_qybNRKBtqUaVHmgm0ZD-1" target="_qybNRKBtqUaVHmgm0ZD-20" edge="1">
          <mxGeometry relative="1" as="geometry">
            <Array as="points">
              <mxPoint x="440" y="130" />
              <mxPoint x="440" y="435" />
            </Array>
          </mxGeometry>
        </mxCell>
        <mxCell id="_qybNRKBtqUaVHmgm0ZD-30" style="edgeStyle=orthogonalEdgeStyle;rounded=0;orthogonalLoop=1;jettySize=auto;html=1;entryX=-0.009;entryY=0.697;entryDx=0;entryDy=0;entryPerimeter=0;" parent="1" source="_qybNRKBtqUaVHmgm0ZD-11" target="_qybNRKBtqUaVHmgm0ZD-2" edge="1">
          <mxGeometry relative="1" as="geometry" />
        </mxCell>
        <mxCell id="_qybNRKBtqUaVHmgm0ZD-35" value="SW[15]" style="text;html=1;align=center;verticalAlign=middle;whiteSpace=wrap;rounded=0;" parent="1" vertex="1">
          <mxGeometry x="20" y="550" width="60" height="30" as="geometry" />
        </mxCell>
        <mxCell id="_qybNRKBtqUaVHmgm0ZD-36" value="0" style="text;html=1;align=center;verticalAlign=middle;whiteSpace=wrap;rounded=0;" parent="1" vertex="1">
          <mxGeometry x="500" y="420" width="20" height="30" as="geometry" />
        </mxCell>
        <mxCell id="_qybNRKBtqUaVHmgm0ZD-37" value="1" style="text;html=1;align=center;verticalAlign=middle;whiteSpace=wrap;rounded=0;" parent="1" vertex="1">
          <mxGeometry x="500" y="484" width="20" height="30" as="geometry" />
        </mxCell>
        <mxCell id="_qybNRKBtqUaVHmgm0ZD-39" value="AN[7:0]" style="text;html=1;align=center;verticalAlign=middle;whiteSpace=wrap;rounded=0;" parent="1" vertex="1">
          <mxGeometry x="740" y="355" width="60" height="30" as="geometry" />
        </mxCell>
        <mxCell id="_qybNRKBtqUaVHmgm0ZD-40" value="CA[6:0]" style="text;html=1;align=center;verticalAlign=middle;whiteSpace=wrap;rounded=0;" parent="1" vertex="1">
          <mxGeometry x="740" y="420" width="60" height="30" as="geometry" />
        </mxCell>
        <mxCell id="_qybNRKBtqUaVHmgm0ZD-41" value="LED[15:0]" style="text;html=1;align=center;verticalAlign=middle;whiteSpace=wrap;rounded=0;" parent="1" vertex="1">
          <mxGeometry x="740" y="484" width="60" height="30" as="geometry" />
        </mxCell>
        <mxCell id="_qybNRKBtqUaVHmgm0ZD-45" style="edgeStyle=orthogonalEdgeStyle;rounded=0;orthogonalLoop=1;jettySize=auto;html=1;entryX=-0.007;entryY=0.114;entryDx=0;entryDy=0;entryPerimeter=0;" parent="1" source="_qybNRKBtqUaVHmgm0ZD-5" target="_qybNRKBtqUaVHmgm0ZD-1" edge="1">
          <mxGeometry relative="1" as="geometry">
            <Array as="points">
              <mxPoint x="120" y="145" />
              <mxPoint x="120" y="116" />
            </Array>
          </mxGeometry>
        </mxCell>
        <mxCell id="_qybNRKBtqUaVHmgm0ZD-49" style="edgeStyle=orthogonalEdgeStyle;rounded=0;orthogonalLoop=1;jettySize=auto;html=1;entryX=0.006;entryY=0.205;entryDx=0;entryDy=0;entryPerimeter=0;" parent="1" source="_qybNRKBtqUaVHmgm0ZD-5" target="_qybNRKBtqUaVHmgm0ZD-2" edge="1">
          <mxGeometry relative="1" as="geometry">
            <Array as="points">
              <mxPoint x="120" y="145" />
              <mxPoint x="120" y="351" />
            </Array>
          </mxGeometry>
        </mxCell>
        <mxCell id="_qybNRKBtqUaVHmgm0ZD-52" style="edgeStyle=orthogonalEdgeStyle;rounded=0;orthogonalLoop=1;jettySize=auto;html=1;entryX=0;entryY=0.5;entryDx=0;entryDy=0;" parent="1" source="_qybNRKBtqUaVHmgm0ZD-50" target="_qybNRKBtqUaVHmgm0ZD-2" edge="1">
          <mxGeometry relative="1" as="geometry" />
        </mxCell>
        <mxCell id="_qybNRKBtqUaVHmgm0ZD-50" value="BTNC" style="text;html=1;align=center;verticalAlign=middle;whiteSpace=wrap;rounded=0;" parent="1" vertex="1">
          <mxGeometry x="20" y="380" width="50" height="30" as="geometry" />
        </mxCell>
      </root>
    </mxGraphModel>
  </diagram>
</mxfile>
